<svg width="1728" height="269" viewBox="0 0 1728 269" fill="none" xmlns="http://www.w3.org/2000/svg">
<path d="M36 0L67.1769 53.25H4.82309L36 0Z" fill="#D9D9D9" fill-opacity="0.1"/>
<path d="M612 0L643.177 53.25H580.823L612 0Z" fill="#D9D9D9" fill-opacity="0.1"/>
<path d="M1188 0L1219.18 53.25H1156.82L1188 0Z" fill="#D9D9D9" fill-opacity="0.1"/>
<path d="M108 0L139.177 53.25H76.8231L108 0Z" fill="#D9D9D9" fill-opacity="0.1"/>
<path d="M684 0L715.177 53.25H652.823L684 0Z" fill="#D9D9D9" fill-opacity="0.1"/>
<path d="M1260 0L1291.18 53.25H1228.82L1260 0Z" fill="#D9D9D9" fill-opacity="0.1"/>
<path d="M180 0L211.177 53.25H148.823L180 0Z" fill="#D9D9D9" fill-opacity="0.1"/>
<path d="M756 0L787.177 53.25H724.823L756 0Z" fill="#D9D9D9" fill-opacity="0.1"/>
<path d="M1332 0L1363.18 53.25H1300.82L1332 0Z" fill="#D9D9D9" fill-opacity="0.1"/>
<path d="M252 0L283.177 53.25H220.823L252 0Z" fill="#D9D9D9" fill-opacity="0.1"/>
<path d="M828 0L859.177 53.25H796.823L828 0Z" fill="#D9D9D9" fill-opacity="0.1"/>
<path d="M1404 0L1435.18 53.25H1372.82L1404 0Z" fill="#D9D9D9" fill-opacity="0.1"/>
<path d="M324 0L355.177 53.25H292.823L324 0Z" fill="#D9D9D9" fill-opacity="0.1"/>
<path d="M900 0L931.177 53.25H868.823L900 0Z" fill="#D9D9D9" fill-opacity="0.1"/>
<path d="M1476 0L1507.18 53.25H1444.82L1476 0Z" fill="#D9D9D9" fill-opacity="0.1"/>
<path d="M396 0L427.177 53.25H364.823L396 0Z" fill="#D9D9D9" fill-opacity="0.1"/>
<path d="M972 0L1003.18 53.25H940.823L972 0Z" fill="#D9D9D9" fill-opacity="0.1"/>
<path d="M1548 0L1579.18 53.25H1516.82L1548 0Z" fill="#D9D9D9" fill-opacity="0.1"/>
<path d="M468 0L499.177 53.25H436.823L468 0Z" fill="#D9D9D9" fill-opacity="0.1"/>
<path d="M1044 0L1075.18 53.25H1012.82L1044 0Z" fill="#D9D9D9" fill-opacity="0.1"/>
<path d="M1620 0L1651.18 53.25H1588.82L1620 0Z" fill="#D9D9D9" fill-opacity="0.1"/>
<path d="M540 0L571.177 53.25H508.823L540 0Z" fill="#D9D9D9" fill-opacity="0.1"/>
<path d="M1116 0L1147.18 53.25H1084.82L1116 0Z" fill="#D9D9D9" fill-opacity="0.1"/>
<path d="M1692 0L1723.18 53.25H1660.82L1692 0Z" fill="#D9D9D9" fill-opacity="0.1"/>
<path d="M36 99L67.1769 152.25H4.82309L36 99Z" fill="#D9D9D9" fill-opacity="0.1"/>
<path d="M612 99L643.177 152.25H580.823L612 99Z" fill="#D9D9D9" fill-opacity="0.1"/>
<path d="M1188 99L1219.18 152.25H1156.82L1188 99Z" fill="#D9D9D9" fill-opacity="0.1"/>
<path d="M108 99L139.177 152.25H76.8231L108 99Z" fill="#D9D9D9" fill-opacity="0.1"/>
<path d="M684 99L715.177 152.25H652.823L684 99Z" fill="#D9D9D9" fill-opacity="0.1"/>
<path d="M1260 99L1291.18 152.25H1228.82L1260 99Z" fill="#D9D9D9" fill-opacity="0.1"/>
<path d="M180 99L211.177 152.25H148.823L180 99Z" fill="#D9D9D9" fill-opacity="0.1"/>
<path d="M756 99L787.177 152.25H724.823L756 99Z" fill="#D9D9D9" fill-opacity="0.1"/>
<path d="M1332 99L1363.18 152.25H1300.82L1332 99Z" fill="#D9D9D9" fill-opacity="0.1"/>
<path d="M252 99L283.177 152.25H220.823L252 99Z" fill="#D9D9D9" fill-opacity="0.1"/>
<path d="M828 99L859.177 152.25H796.823L828 99Z" fill="#D9D9D9" fill-opacity="0.1"/>
<path d="M1404 99L1435.18 152.25H1372.82L1404 99Z" fill="#D9D9D9" fill-opacity="0.1"/>
<path d="M324 99L355.177 152.25H292.823L324 99Z" fill="#D9D9D9" fill-opacity="0.1"/>
<path d="M900 99L931.177 152.25H868.823L900 99Z" fill="#D9D9D9" fill-opacity="0.1"/>
<path d="M1476 99L1507.18 152.25H1444.82L1476 99Z" fill="#D9D9D9" fill-opacity="0.1"/>
<path d="M396 99L427.177 152.25H364.823L396 99Z" fill="#D9D9D9" fill-opacity="0.1"/>
<path d="M972 99L1003.18 152.25H940.823L972 99Z" fill="#D9D9D9" fill-opacity="0.1"/>
<path d="M1548 99L1579.18 152.25H1516.82L1548 99Z" fill="#D9D9D9" fill-opacity="0.1"/>
<path d="M468 99L499.177 152.25H436.823L468 99Z" fill="#D9D9D9" fill-opacity="0.1"/>
<path d="M1044 99L1075.18 152.25H1012.82L1044 99Z" fill="#D9D9D9" fill-opacity="0.1"/>
<path d="M1620 99L1651.18 152.25H1588.82L1620 99Z" fill="#D9D9D9" fill-opacity="0.1"/>
<path d="M540 99L571.177 152.25H508.823L540 99Z" fill="#D9D9D9" fill-opacity="0.1"/>
<path d="M1116 99L1147.18 152.25H1084.82L1116 99Z" fill="#D9D9D9" fill-opacity="0.1"/>
<path d="M1692 99L1723.18 152.25H1660.82L1692 99Z" fill="#D9D9D9" fill-opacity="0.1"/>
<path d="M36 198L67.1769 251.25H4.82309L36 198Z" fill="#D9D9D9" fill-opacity="0.1"/>
<path d="M612 198L643.177 251.25H580.823L612 198Z" fill="#D9D9D9" fill-opacity="0.1"/>
<path d="M1188 198L1219.18 251.25H1156.82L1188 198Z" fill="#D9D9D9" fill-opacity="0.1"/>
<path d="M108 198L139.177 251.25H76.8231L108 198Z" fill="#D9D9D9" fill-opacity="0.1"/>
<path d="M684 198L715.177 251.25H652.823L684 198Z" fill="#D9D9D9" fill-opacity="0.1"/>
<path d="M1260 198L1291.18 251.25H1228.82L1260 198Z" fill="#D9D9D9" fill-opacity="0.1"/>
<path d="M180 198L211.177 251.25H148.823L180 198Z" fill="#D9D9D9" fill-opacity="0.1"/>
<path d="M756 198L787.177 251.25H724.823L756 198Z" fill="#D9D9D9" fill-opacity="0.1"/>
<path d="M1332 198L1363.18 251.25H1300.82L1332 198Z" fill="#D9D9D9" fill-opacity="0.1"/>
<path d="M252 198L283.177 251.25H220.823L252 198Z" fill="#D9D9D9" fill-opacity="0.1"/>
<path d="M828 198L859.177 251.25H796.823L828 198Z" fill="#D9D9D9" fill-opacity="0.1"/>
<path d="M1404 198L1435.18 251.25H1372.82L1404 198Z" fill="#D9D9D9" fill-opacity="0.1"/>
<path d="M324 198L355.177 251.25H292.823L324 198Z" fill="#D9D9D9" fill-opacity="0.1"/>
<path d="M900 198L931.177 251.25H868.823L900 198Z" fill="#D9D9D9" fill-opacity="0.1"/>
<path d="M1476 198L1507.18 251.25H1444.82L1476 198Z" fill="#D9D9D9" fill-opacity="0.1"/>
<path d="M396 198L427.177 251.25H364.823L396 198Z" fill="#D9D9D9" fill-opacity="0.1"/>
<path d="M972 198L1003.18 251.25H940.823L972 198Z" fill="#D9D9D9" fill-opacity="0.1"/>
<path d="M1548 198L1579.18 251.25H1516.82L1548 198Z" fill="#D9D9D9" fill-opacity="0.1"/>
<path d="M468 198L499.177 251.25H436.823L468 198Z" fill="#D9D9D9" fill-opacity="0.1"/>
<path d="M1044 198L1075.18 251.25H1012.82L1044 198Z" fill="#D9D9D9" fill-opacity="0.1"/>
<path d="M1620 198L1651.18 251.25H1588.82L1620 198Z" fill="#D9D9D9" fill-opacity="0.1"/>
<path d="M540 198L571.177 251.25H508.823L540 198Z" fill="#D9D9D9" fill-opacity="0.1"/>
<path d="M1116 198L1147.18 251.25H1084.82L1116 198Z" fill="#D9D9D9" fill-opacity="0.1"/>
<path d="M1692 198L1723.18 251.25H1660.82L1692 198Z" fill="#D9D9D9" fill-opacity="0.1"/>
</svg>
